<svg width="131" height="38" viewBox="0 0 131 38" fill="none" xmlns="http://www.w3.org/2000/svg">
<g clip-path="url(#clip0_833_355)">
<path d="M11.112 2.00367C9.56961 2.00367 8.6347 2.18553 8.30767 2.54867C7.98006 2.9122 7.81674 3.86683 7.81674 5.41352V23.0603C7.81674 25.3803 7.68814 27.1264 7.43114 28.2979C7.05717 30.1258 6.19227 31.6956 4.83703 33.0083C3.41138 34.3909 1.79874 35.0823 -0.000488281 35.0823V32.0242L0.420031 31.7781C1.07408 32.2702 1.74017 32.5163 2.41827 32.5163C3.79698 32.5163 4.48653 31.3442 4.48653 29.001V5.41352C4.48653 3.84368 4.32884 2.88244 4.01326 2.53097C3.69787 2.17951 2.76877 2.00367 1.22635 2.00367V0.773438C1.76364 0.773438 2.57597 0.803002 3.66276 0.861159C4.74955 0.920093 5.5613 0.949074 6.09917 0.949074C6.02895 0.949074 7.69958 0.890918 11.112 0.773438V2.00367Z" fill="#ffffff"/>
<path d="M47.3201 28.1221C46.4317 27.9815 45.614 27.9111 44.8662 27.9111C44.2353 27.9111 43.4169 27.9815 42.4124 28.1221C42.2952 27.9111 41.8514 27.4075 41.0802 26.6104L30.1428 15.1507L29.8275 15.3617V23.4468C29.8275 25.0408 29.9906 26.0129 30.3182 26.3644C30.6452 26.7159 31.5801 26.8917 33.1225 26.8917V28.1221C32.5847 28.1221 31.7555 28.0869 30.6338 28.0165C29.5119 27.9463 28.6821 27.9111 28.1448 27.9111C28.0977 27.9111 26.4736 27.9815 23.272 28.1221V26.8917C24.8144 26.8917 25.7435 26.7159 26.0589 26.3644C26.3745 26.0129 26.5322 25.0408 26.5322 23.4468V5.76489C26.5322 4.19524 26.3745 3.22856 26.0589 2.86484C25.7435 2.5017 24.8144 2.32003 23.272 2.32003V1.0896C23.7858 1.0896 24.5867 1.1248 25.6733 1.19502C26.7601 1.26543 27.5838 1.30064 28.1448 1.30064C28.0977 1.30064 29.7572 1.23023 33.1225 1.0896V2.32003C31.6032 2.32003 30.6743 2.5017 30.3356 2.86484C29.9966 3.22856 29.8275 4.19524 29.8275 5.76489V14.1313C30.575 13.5688 31.3813 12.8075 32.2462 11.8464L39.9234 3.33942C40.3204 2.89459 40.5193 2.1442 40.5193 1.0896C41.7343 1.23023 42.7278 1.30064 43.499 1.30064C44.3635 1.30064 45.3335 1.23023 46.4087 1.0896V2.32003C45.4266 2.32003 44.6608 2.43148 44.1115 2.65341C43.562 2.87534 42.9601 3.31356 42.3061 3.96728L33.1534 13.2212L44.4182 25.1264C45.117 25.8799 45.5366 26.3035 45.6768 26.3975C46.1195 26.7269 46.6672 26.8917 47.3201 26.8917V28.1221Z" fill="#ffffff"/>
<path d="M61.704 17.084C61.704 17.2246 61.6803 17.5646 61.6338 18.1036C59.5537 18.4786 55.8028 18.6659 50.381 18.6659C50.381 20.869 50.8483 22.6266 51.7834 23.9389C52.858 25.4152 54.459 26.1535 56.586 26.1535C57.614 26.1535 59.0513 25.5558 60.8979 24.3608L61.2482 24.8529L60.6872 26.1885C58.8876 27.5716 57.0182 28.2627 55.0785 28.2627C52.4607 28.2627 50.4513 27.3838 49.0491 25.6262C47.7398 24.0328 47.0859 21.8884 47.0859 19.1932C47.0859 16.8732 47.4715 15.0221 48.2428 13.6391C49.084 12.0925 50.5092 10.8741 52.5193 9.98326C53.4775 9.58511 54.3422 9.38574 55.1134 9.38574C57.3336 9.38574 59.0164 10.1359 60.1616 11.6354C61.1896 12.9712 61.704 14.7877 61.704 17.084ZM58.549 17.1544C58.549 12.8893 57.2048 10.7566 54.5176 10.7566C53.0454 10.7566 51.9467 11.4718 51.2225 12.901C50.6615 14.0027 50.381 15.3852 50.381 17.049C51.5258 17.1896 53.1035 17.2598 55.1134 17.2598C56.1884 17.2598 57.3336 17.2246 58.549 17.1544Z" fill="#ffffff"/>
<path d="M80.1084 10.5459C79.3135 10.5459 78.6824 10.8149 78.2153 11.3532C77.9111 11.6812 77.5841 12.3013 77.2338 13.2141L69.2409 33.2254C68.633 34.7231 68.0142 35.8234 67.383 36.5253C66.4718 37.4848 65.3379 37.9649 63.9828 37.9649C63.3982 37.9649 62.814 37.7655 62.2298 37.3673L63.0363 34.4144H63.527C64.1108 35.0703 64.6601 35.3988 65.1745 35.3988C66.2026 35.3988 67.2077 34.3924 68.1896 32.3801C68.3525 32.0284 68.9134 30.5543 69.872 27.9569L63.9475 11.7041C63.667 10.9088 62.9191 10.5227 61.7041 10.5459V9.31543H69.7669V10.5459C68.1543 10.5227 67.3481 10.8847 67.3481 11.6327C67.3481 12.0766 67.9669 13.9699 69.2059 17.3121C69.9772 19.4158 70.76 21.5073 71.5549 23.5873C72.3024 21.6244 73.05 19.6607 73.7983 17.6978C75.1304 14.122 75.7965 12.1233 75.7965 11.7026C75.7965 10.9082 75.0253 10.5227 73.4829 10.5459V9.31543H80.1084V10.5459Z" fill="#ffffff"/>
<path d="M97.6897 28.1923C96.6147 28.0517 95.6328 27.9815 94.7453 27.9815C93.9038 27.9815 92.9224 28.0517 91.8005 28.1923C91.9172 27.5771 91.9638 26.8083 91.9405 25.8855V24.5365L88.2598 28.0869C87.3421 28.3805 86.0164 28.4384 86.0866 28.4384C83.6554 28.4384 81.8096 27.5244 80.5477 25.6965C79.4723 24.1031 78.9351 22.0291 78.9351 19.4745C78.9351 17.4357 79.3436 15.7956 80.1621 14.5532C80.9096 13.3815 82.2069 12.2804 84.0531 11.2487C85.7359 10.2881 86.9858 9.80746 87.804 9.80746C88.9488 9.80746 90.3283 10.2062 91.9405 11.0027V4.56967C91.9405 3.23401 91.0056 2.56609 89.1361 2.56609V1.33566C91.3799 0.984189 93.2959 0.539359 94.8853 0C95.0257 0.164745 95.0956 0.434327 95.0956 0.809525C95.0956 2.68687 95.0606 5.50232 94.9904 9.25663C94.9206 13.0113 94.8853 15.8268 94.8853 17.7037V25.3417C94.8853 26.0925 95.2007 26.5737 95.8319 26.7845C96.0185 26.8549 96.638 26.9137 97.6897 26.9604V28.1923ZM91.9405 14.4477C90.3981 12.5966 88.7858 11.6706 87.103 11.6706C83.714 11.6706 82.0199 14.0144 82.0199 18.7011C82.0199 20.5764 82.4408 22.1933 83.2818 23.5523C84.2637 25.1929 85.6188 26.0129 87.3485 26.0129C88.9138 26.0129 90.1056 25.2631 90.9241 23.7631C91.6014 22.5679 91.9405 21.1151 91.9405 19.4043V14.4477Z" fill="#ffffff"/>
<path d="M116.111 10.8621L115.2 12.4792H112.08C112.313 13.1355 112.43 13.8501 112.43 14.6234C112.43 16.6157 111.618 18.2504 109.994 19.5273C108.369 20.805 106.552 21.3612 104.543 21.1971C103.491 22.1813 102.965 22.8965 102.965 23.3413C102.965 24.4432 104.204 24.9936 106.681 24.9936C107.265 24.9936 108.019 24.9584 108.942 24.888C109.865 24.8178 110.42 24.7826 110.607 24.7826C112.267 24.7826 113.441 25.1753 114.131 25.9603C114.82 26.7457 115.165 27.9816 115.165 29.6689C115.165 32.0591 114.195 34.0744 112.255 35.715C110.409 37.2382 108.259 38.0001 105.805 38.0001C103.724 38.0001 102.019 37.5547 100.687 36.6642C99.1207 35.6328 98.3379 34.1331 98.3379 32.1648C98.3379 30.8052 98.7115 29.7622 99.4598 29.0362C99.6231 28.8718 100.558 28.2628 102.264 27.2082C100.815 26.6457 100.091 26.0482 100.091 25.4153C100.091 24.408 100.406 23.5644 101.037 22.8844C101.178 22.7206 101.89 22.1231 103.176 21.0917C101.937 20.8806 100.944 20.26 100.196 19.2285C99.4947 18.2679 99.1444 17.143 99.1444 15.8539C99.1444 13.7447 99.9156 12.0459 101.458 10.7567C102.883 9.5148 104.66 8.89355 106.786 8.89355C108.516 8.89355 109.929 9.43291 111.028 10.5107H115.936L116.111 10.8621ZM112.395 31.0397C112.395 29.6804 112.103 28.7664 111.519 28.2978C110.934 27.8295 109.941 27.5949 108.539 27.5949H104.157C103.199 27.5949 102.416 28.0633 101.808 29.001C101.294 29.821 101.037 30.7464 101.037 31.7781C101.037 33.3011 101.493 34.5023 102.405 35.3811C103.316 36.26 104.531 36.6994 106.05 36.6994C107.756 36.6994 109.24 36.1776 110.502 35.135C111.764 34.0921 112.395 32.7271 112.395 31.0397ZM109.416 15.8539C109.416 14.3774 109.16 13.1592 108.648 12.198C107.973 11.0028 106.962 10.4052 105.612 10.4052C104.426 10.4052 103.519 10.8507 102.891 11.7409C102.356 12.5142 102.089 13.5338 102.089 14.7993C102.089 16.2291 102.368 17.3891 102.926 18.2793C103.577 19.3577 104.566 19.8964 105.892 19.8964C106.962 19.8964 107.834 19.4866 108.508 18.666C109.113 17.8927 109.416 16.9557 109.416 15.8539Z" fill="#ffffff"/>
<path d="M131 17.084C131 17.2246 130.976 17.5646 130.93 18.1036C128.85 18.4786 125.099 18.6659 119.677 18.6659C119.677 20.869 120.144 22.6266 121.079 23.9389C122.154 25.4152 123.755 26.1535 125.882 26.1535C126.91 26.1535 128.347 25.5558 130.194 24.3608L130.544 24.8529L129.983 26.1885C128.184 27.5716 126.314 28.2627 124.374 28.2627C121.757 28.2627 119.747 27.3838 118.345 25.6262C117.036 24.0328 116.382 21.8884 116.382 19.1932C116.382 16.8732 116.767 15.0221 117.539 13.6391C118.38 12.0925 119.805 10.8741 121.815 9.98326C122.773 9.58511 123.638 9.38574 124.409 9.38574C126.629 9.38574 128.312 10.1359 129.457 11.6354C130.486 12.9712 131 14.7877 131 17.084ZM127.845 17.1544C127.845 12.8893 126.501 10.7566 123.813 10.7566C122.341 10.7566 121.243 11.4718 120.518 12.901C119.957 14.0027 119.677 15.3852 119.677 17.049C120.822 17.1896 122.399 17.2598 124.409 17.2598C125.484 17.2598 126.629 17.2246 127.845 17.1544Z" fill="#ffffff"/>
<path d="M15.9023 7.95288L17.2478 12.1054H21.6019L18.0794 14.6718L19.4249 18.8243L15.9023 16.2579L12.3797 18.8243L13.7252 14.6718L10.2026 12.1054H14.5568L15.9023 7.95288Z" fill="#5BA8C8"/>
</g>
<defs>
<clipPath id="clip0_833_355">
<rect width="131" height="38" fill="white"/>
</clipPath>
</defs>
</svg>
