<?xml version="1.0" encoding="UTF-8"?>
<svg version="1.1" xmlns="http://www.w3.org/2000/svg" width="1588" height="329" viewBox="-188 0 1588 329">
<style>
  .jose-text {
    fill: var(--foreground, #141414);
  }
</style>
<g>
<path class="jose-text" d="M0 0 C85.47 0 170.94 0 259 0 C259 7.59 259 15.18 259 23 C266.92 23 274.84 23 283 23 C283 38.51 283 54.02 283 70 C275.08 70 267.16 70 259 70 C259 77.92 259 85.84 259 94 C212.47 94 165.94 94 118 94 C118 101.59 118 109.18 118 117 C164.53 117 211.06 117 259 117 C259 124.92 259 132.84 259 141 C266.92 141 274.84 141 283 141 C283 187.53 283 234.06 283 282 C275.08 282 267.16 282 259 282 C259 289.92 259 297.84 259 306 C251.41 306 243.82 306 236 306 C236 313.59 236 321.18 236 329 C150.2 329 64.4 329 -24 329 C-24 321.41 -24 313.82 -24 306 C-31.92 306 -39.84 306 -48 306 C-48 282.57 -48 259.14 -48 235 C-40.08 235 -32.16 235 -24 235 C-24 227.08 -24 219.16 -24 211 C38.04 211 100.08 211 164 211 C164 203.41 164 195.82 164 188 C101.96 188 39.92 188 -24 188 C-24 180.41 -24 172.82 -24 165 C-31.92 165 -39.84 165 -48 165 C-48 126.06 -48 87.12 -48 47 C-39.75 47 -31.5 47 -23 47 C-23 54.59 -23 62.18 -23 70 C-15.41 70 -7.82 70 0 70 C0 62.41 0 54.82 0 47 C7.59 47 15.18 47 23 47 C23 39.08 23 31.16 23 23 C15.41 23 7.82 23 0 23 C0 15.41 0 7.82 0 0 Z " transform="translate(682,0)"/>
<path class="jose-text" d="M0 0 C77.88 0 155.76 0 236 0 C236 7.59 236 15.18 236 23 C243.92 23 251.84 23 260 23 C260 30.92 260 38.84 260 47 C267.59 47 275.18 47 283 47 C283 124.55 283 202.1 283 282 C275.41 282 267.82 282 260 282 C260 289.59 260 297.18 260 305 C252.08 305 244.16 305 236 305 C236 312.92 236 320.84 236 329 C158.12 329 80.24 329 0 329 C0 321.08 0 313.16 0 305 C-7.59 305 -15.18 305 -23 305 C-23 297.41 -23 289.82 -23 282 C-30.92 282 -38.84 282 -47 282 C-47 204.45 -47 126.9 -47 47 C-39.08 47 -31.16 47 -23 47 C-23 54.59 -23 62.18 -23 70 C-15.41 70 -7.82 70 0 70 C0 62.41 0 54.82 0 47 C7.92 47 15.84 47 24 47 C24 39.08 24 31.16 24 23 C16.08 23 8.16 23 0 23 C0 15.41 0 7.82 0 0 Z M119 71 C119 125.12 119 179.24 119 235 C141.77 235 164.54 235 188 235 C188 180.88 188 126.76 188 71 C165.23 71 142.46 71 119 71 Z " transform="translate(305,0)"/>
<path class="jose-text" d="M0 0 C93.72 0 187.44 0 284 0 C284 7.59 284 15.18 284 23 C291.59 23 299.18 23 307 23 C307 30.92 307 38.84 307 47 C299.41 47 291.82 47 284 47 C284 54.92 284 62.84 284 71 C237.47 71 190.94 71 143 71 C143 86.18 143 101.36 143 117 C189.53 117 236.06 117 284 117 C284 124.92 284 132.84 284 141 C291.59 141 299.18 141 307 141 C307 148.92 307 156.84 307 165 C299.41 165 291.82 165 284 165 C284 172.59 284 180.18 284 188 C237.47 188 190.94 188 143 188 C143 203.51 143 219.02 143 235 C189.53 235 236.06 235 284 235 C284 242.59 284 250.18 284 258 C291.59 258 299.18 258 307 258 C307 273.51 307 289.02 307 305 C299.41 305 291.82 305 284 305 C284 312.92 284 320.84 284 329 C190.28 329 96.56 329 0 329 C0 321.08 0 313.16 0 305 C-7.59 305 -15.18 305 -23 305 C-23 211.94 -23 118.88 -23 23 C-15.41 23 -7.82 23 0 23 C0 15.41 0 7.82 0 0 Z M1 23 C1 38.51 1 54.02 1 70 C8.59 70 16.18 70 24 70 C24 62.41 24 54.82 24 47 C31.92 47 39.84 47 48 47 C48 39.08 48 31.16 48 23 C32.49 23 16.98 23 1 23 Z " transform="translate(1034,0)"/>
<path class="jose-text" d="M0 0 C38.94 0 77.88 0 118 0 C118 7.59 118 15.18 118 23 C125.92 23 133.84 23 142 23 C142 108.47 142 193.94 142 282 C134.08 282 126.16 282 118 282 C118 289.92 118 297.84 118 306 C110.41 306 102.82 306 95 306 C95 313.59 95 321.18 95 329 C17.12 329 -60.76 329 -141 329 C-141 321.41 -141 313.82 -141 306 C-148.92 306 -156.84 306 -165 306 C-165 298.08 -165 290.16 -165 282 C-172.59 282 -180.18 282 -188 282 C-188 243.06 -188 204.12 -188 164 C-180.41 164 -172.82 164 -165 164 C-165 156.41 -165 148.82 -165 141 C-141.24 141 -117.48 141 -93 141 C-93 148.59 -93 156.18 -93 164 C-85.41 164 -77.82 164 -70 164 C-70 187.43 -70 210.86 -70 235 C-54.82 235 -39.64 235 -24 235 C-24 165.04 -24 95.08 -24 23 C-16.08 23 -8.16 23 0 23 C0 15.41 0 7.82 0 0 Z M1 24 C1 39.18 1 54.36 1 70 C8.26 70 15.52 70 23 70 C23 62.41 23 54.82 23 47 C30.92 47 38.84 47 47 47 C47 39.41 47 31.82 47 24 C31.82 24 16.64 24 1 24 Z " transform="translate(70,0)"/>
</g>
</svg>
